<?xml version="1.0" encoding="UTF-8"?>
<svg fill="#000000" version="1.1" viewBox="0 0 30 50" xml:space="preserve" xmlns="http://www.w3.org/2000/svg" xmlns:xlink="http://www.w3.org/1999/xlink"><defs><linearGradient id="linearGradient875"><stop stop-color="#00b894" offset="0"/><stop stop-color="#0984e3" stop-opacity=".99595" offset="1"/></linearGradient><linearGradient id="linearGradient877" x1="50.931" x2="50.931" y1="2.3689" y2="97.8" gradientUnits="userSpaceOnUse" xlink:href="#linearGradient875"/><linearGradient id="linearGradient991" x1="50" x2="50" y1="69.589" y2="93" gradientTransform="matrix(1.9346 0 0 2.1385 -60.634 -146.43)" gradientUnits="userSpaceOnUse" xlink:href="#linearGradient875"/></defs><g fill="#b25" fill-opacity=".2"><g transform="matrix(1.0069 0 0 1.0011 -21.347 -2.5026)" fill="#b25" fill-opacity=".2"><g fill-opacity="1" stroke-width="2.034"><path d="m36.097 52.447c-3.4823 0-14.897-1.0692-14.897-16.253 0-9.1956 8.8992-24.593 14.316-32.933 0.38692-1.7139 0.77385 0 1.1608 0 5.4169 8.3402 14.316 23.524 14.316 32.933 0 15.183-11.414 16.253-14.897 16.253z" fill="url(#linearGradient991)"/><path d="m32.421 25.075c-0.96731-0.21385-1.9346 0.4277-2.515 1.2831-1.1608 2.7801-2.7085 6.8432-2.7085 9.8371 0 2.3524 0 9.4094 8.7058 9.6233 0.77385 0 1.5477-0.64155 1.9346-1.497 0.38692-0.8554 0.19346-1.9246-0.38692-2.5662-2.9019-3.8493-3.4823-11.334-3.4823-14.328 0.19346-1.0693-0.58039-2.1385-1.5477-2.3524z" fill="#fff"/></g></g></g></svg>
