<?xml version="1.0" encoding="UTF-8" standalone="no"?>
<svg
   xmlns:dc="http://purl.org/dc/elements/1.1/"
   xmlns:cc="http://creativecommons.org/ns#"
   xmlns:rdf="http://www.w3.org/1999/02/22-rdf-syntax-ns#"
   xmlns:svg="http://www.w3.org/2000/svg"
   xmlns="http://www.w3.org/2000/svg"
   xmlns:xlink="http://www.w3.org/1999/xlink"
   xmlns:sodipodi="http://sodipodi.sourceforge.net/DTD/sodipodi-0.dtd"
   xmlns:inkscape="http://www.inkscape.org/namespaces/inkscape"
   height="95"
   width="58"
   fill="#000000"
   version="1.1"
   x="0px"
   y="0px"
   viewBox="0 0 58 95"
   xml:space="preserve"
   id="svg845"
   sodipodi:docname="logo.svg"
   inkscape:version="1.0.1 (c497b03c, 2020-09-10)"><metadata
     id="metadata851"><rdf:RDF><cc:Work
         rdf:about=""><dc:format>image/svg+xml</dc:format><dc:type
           rdf:resource="http://purl.org/dc/dcmitype/StillImage" /><dc:title></dc:title></cc:Work></rdf:RDF></metadata><defs
     id="defs849"><linearGradient
       inkscape:collect="always"
       id="linearGradient999"><stop
         style="stop-color:#fdcb6e;stop-opacity:1;"
         offset="0"
         id="stop995" /><stop
         style="stop-color:#e17055;stop-opacity:1"
         offset="1"
         id="stop997" /></linearGradient><linearGradient
       inkscape:collect="always"
       id="linearGradient875"><stop
         style="stop-color:#00b894;stop-opacity:1"
         offset="0"
         id="stop871" /><stop
         style="stop-color:#0984e3;stop-opacity:0.99595141"
         offset="1"
         id="stop873" /></linearGradient><linearGradient
       inkscape:collect="always"
       xlink:href="#linearGradient875"
       id="linearGradient877"
       x1="50.930626"
       y1="2.3688664"
       x2="50.930626"
       y2="97.800339"
       gradientUnits="userSpaceOnUse" /><linearGradient
       inkscape:collect="always"
       xlink:href="#linearGradient875"
       id="linearGradient991"
       gradientUnits="userSpaceOnUse"
       x1="50.930626"
       y1="2.3688664"
       x2="50.930626"
       y2="97.800339" /><linearGradient
       inkscape:collect="always"
       xlink:href="#linearGradient875"
       id="linearGradient993"
       gradientUnits="userSpaceOnUse"
       x1="50.930626"
       y1="2.3688664"
       x2="50.930626"
       y2="97.800339" /><linearGradient
       inkscape:collect="always"
       xlink:href="#linearGradient999"
       id="linearGradient1001"
       x1="49.598392"
       y1="30.220367"
       x2="49.598392"
       y2="87.689423"
       gradientUnits="userSpaceOnUse" /></defs><sodipodi:namedview
     pagecolor="#ffffff"
     bordercolor="#666666"
     borderopacity="1"
     objecttolerance="10"
     gridtolerance="10"
     guidetolerance="10"
     inkscape:pageopacity="0"
     inkscape:pageshadow="2"
     inkscape:window-width="1179"
     inkscape:window-height="756"
     id="namedview847"
     showgrid="false"
     inkscape:zoom="5.91"
     inkscape:cx="40.862944"
     inkscape:cy="48.615247"
     inkscape:window-x="0"
     inkscape:window-y="25"
     inkscape:window-maximized="0"
     inkscape:current-layer="g839" /><g
     id="g843"
     style="fill:#bb2255;fill-opacity:0.2"><g
       id="g839"
       style="fill:#bb2255;fill-opacity:0.2"
       transform="matrix(1.0069444,0,0,1.0010537,-21.347221,-2.5026342)"><path
         d="m 59,41.3 h -0.9 v -4.1 c 0,-3.8 -3.1,-6.9 -6.9,-6.9 h -2.5 c -3.8,0 -6.9,3.1 -6.9,6.9 v 4.1 H 41 c -1.7,0 -3.1,1.4 -3.1,3.1 v 12.8 c 0,1.7 1.4,3.1 3.1,3.1 h 18 c 1.7,0 3.1,-1.4 3.1,-3.1 V 44.4 c 0,-1.7 -1.4,-3.1 -3.1,-3.1 z m -7,13.5 c 0.1,0.3 -0.2,0.7 -0.5,0.7 h -3 c -0.3,0 -0.6,-0.3 -0.5,-0.7 l 1,-4 c -0.8,-0.4 -1.4,-1.2 -1.4,-2.2 0,-1.4 1.1,-2.5 2.5,-2.5 1.4,0 2.5,1.1 2.5,2.5 0,1 -0.6,1.8 -1.4,2.2 z m 2,-13.5 h -8 v -4.1 c 0,-1.5 1.2,-2.8 2.8,-2.8 h 2.5 c 1.5,0 2.8,1.2 2.8,2.8 v 4.1 z"
         id="path833"
         style="fill:url(#linearGradient1001);fill-opacity:1" /><g
         id="g869"
         style="fill:url(#linearGradient877);fill-opacity:1"><path
           d="M 78,19.6 61.7,3.3 C 61.2,2.8 60.5,2.5 59.8,2.5 h -36 c -1.5,0 -2.6,1.2 -2.6,2.6 v 66.1 c 0,1.5 1.2,2.6 2.6,2.6 h 18 c -2.2,3.9 -4,8.1 -4,11.5 0,8.4 6.1,12.1 12.2,12.1 6.1,0 12.2,-3.7 12.2,-12.1 0,-3.4 -1.8,-7.6 -4,-11.5 h 18 c 1.5,0 2.6,-1.2 2.6,-2.6 V 21.5 c 0,-0.7 -0.3,-1.4 -0.8,-1.9 z M 60.9,9.9 71.4,20.4 H 60.9 Z M 50,93 c -1.8,0 -7.7,-0.5 -7.7,-7.6 0,-4.3 4.6,-11.5 7.4,-15.4 L 50,69.6 50.3,70 c 2.8,3.9 7.4,11 7.4,15.4 0,7.1 -5.9,7.6 -7.7,7.6 z m 4.8,-24.4 c -0.7,-1 -1.4,-2 -2,-2.8 -0.6,-0.8 -1.6,-1.3 -2.7,-1.3 -1.1,0 -2.1,0.5 -2.7,1.3 -0.6,0.8 -1.3,1.8 -2,2.8 H 26.5 V 7.8 h 29.1 v 15.3 c 0,1.5 1.2,2.6 2.6,2.6 h 15.3 v 42.9 z"
           id="path835"
           style="fill:url(#linearGradient991);fill-opacity:1" /><path
           d="m 48.1,80.2 c -0.5,-0.1 -1,0.2 -1.3,0.6 -0.6,1.3 -1.4,3.2 -1.4,4.6 0,1.1 0,4.4 4.5,4.5 0,0 0,0 0,0 0.4,0 0.8,-0.3 1,-0.7 0.2,-0.4 0.1,-0.9 -0.2,-1.2 -1.5,-1.8 -1.8,-5.3 -1.8,-6.7 0.1,-0.5 -0.3,-1 -0.8,-1.1 z"
           id="path837"
           style="fill:url(#linearGradient993);fill-opacity:1" /></g></g></g></svg>
